<?xml version="1.0" encoding="UTF-8" standalone="no"?>
<!-- Created with Inkscape (http://www.inkscape.org/) -->

<svg
   xmlns:dc="http://purl.org/dc/elements/1.1/"
   xmlns:cc="http://creativecommons.org/ns#"
   xmlns:rdf="http://www.w3.org/1999/02/22-rdf-syntax-ns#"
   xmlns:svg="http://www.w3.org/2000/svg"
   xmlns="http://www.w3.org/2000/svg"
   xmlns:sodipodi="http://sodipodi.sourceforge.net/DTD/sodipodi-0.dtd"
   xmlns:inkscape="http://www.inkscape.org/namespaces/inkscape"
   width="90"
   height="150"
   id="svg6351"
   version="1.1"
   inkscape:version="0.48.4 r9939"
   sodipodi:docname="level_bg.svg">
  <defs
     id="defs6353" />
  <sodipodi:namedview
     id="base"
     pagecolor="#ffffff"
     bordercolor="#666666"
     borderopacity="1.0"
     inkscape:pageopacity="0.0"
     inkscape:pageshadow="2"
     inkscape:zoom="3.959798"
     inkscape:cx="-7.7909369"
     inkscape:cy="60.705151"
     inkscape:document-units="px"
     inkscape:current-layer="layer1"
     showgrid="false"
     inkscape:window-width="1440"
     inkscape:window-height="876"
     inkscape:window-x="0"
     inkscape:window-y="24"
     inkscape:window-maximized="1" />
  <metadata
     id="metadata6356">
    <rdf:RDF>
      <cc:Work
         rdf:about="">
        <dc:format>image/svg+xml</dc:format>
        <dc:type
           rdf:resource="http://purl.org/dc/dcmitype/StillImage" />
        <dc:title />
      </cc:Work>
    </rdf:RDF>
  </metadata>
  <g
     inkscape:label="Capa 1"
     inkscape:groupmode="layer"
     id="layer1"
     transform="translate(0,-902.36218)">
    <path
       style="fill:#ffffff;stroke:#000000;stroke-width:2.66178608;stroke-linecap:butt;stroke-linejoin:miter;stroke-miterlimit:4;stroke-opacity:1;stroke-dasharray:none"
       d="m 22.433493,903.69307 -4.734462,1.96416 -2.705407,4.58302 0,3.9283 2.705407,3.27358 4.734462,1.96416 48.020973,0 4.734462,-1.96416 2.705407,-3.27358 0,-3.9283 -2.705407,-4.58302 -4.734462,-1.96416 z"
       id="path5323"
       inkscape:connector-curvature="0"
       sodipodi:nodetypes="csssscccccccc" />
    <path
       style="fill:#ffffff;stroke:#000000;stroke-width:2.6618855;stroke-linecap:butt;stroke-linejoin:miter;stroke-miterlimit:4;stroke-opacity:1;stroke-dasharray:none"
       d="m 26.371762,926.13731 -4.73492,1.96411 -2.705668,4.58292 0,3.92821 2.705668,3.27351 4.73492,1.96412 39.90835,2.4e-4 4.73492,-1.96411 2.705667,-3.27376 0,-3.92796 -2.705667,-4.58293 -4.73492,-1.96409 z"
       id="path5323-9"
       inkscape:connector-curvature="0"
       sodipodi:nodetypes="csssscccccccc" />
    <path
       style="fill:#ffffff;stroke:#000000;stroke-width:2.66204357;stroke-linecap:butt;stroke-linejoin:miter;stroke-miterlimit:4;stroke-opacity:1;stroke-dasharray:none"
       d="m 30.310268,947.66569 -4.73551,1.9641 -2.706005,4.5829 0,3.92818 2.706005,3.27349 4.73551,1.96411 32.031525,1.7e-4 4.73532,-1.96377 2.706148,-3.27409 0,-3.92755 -2.706148,-4.58356 -4.73532,-1.96378 z"
       id="path5323-9-6"
       inkscape:connector-curvature="0"
       sodipodi:nodetypes="csssscccccccc" />
    <path
       style="fill:#ffffff;stroke:#000000;stroke-width:2.6622231;stroke-linecap:butt;stroke-linejoin:miter;stroke-miterlimit:4;stroke-opacity:1;stroke-dasharray:none"
       d="m 33.811481,968.72751 -4.736225,1.96407 -2.706414,4.58282 0,3.92812 2.706414,3.27345 4.736225,1.96407 25.029099,2.5e-4 4.736035,-1.96374 2.706557,-3.27404 0,-3.92749 -2.706557,-4.58348 -4.736035,-1.96375 z"
       id="path5323-9-6-6"
       inkscape:connector-curvature="0"
       sodipodi:nodetypes="csssscccccccc" />
    <path
       style="fill:#ffffff;stroke:#000000;stroke-width:2.66248989;stroke-linecap:butt;stroke-linejoin:miter;stroke-miterlimit:4;stroke-opacity:1;stroke-dasharray:none"
       d="m 37.313197,991.15177 -4.737231,1.96404 -2.70699,4.58277 0,3.92802 2.70699,3.2735 4.737231,1.9639 18.025667,2e-4 4.737042,-1.9638 2.707132,-3.2738 0,-3.92752 -2.707132,-4.5834 -4.737042,-1.96372 z"
       id="path5323-9-6-6-1"
       inkscape:connector-curvature="0"
       sodipodi:nodetypes="csssscccccccc" />
    <path
       style="fill:#ffffff;stroke:#000000;stroke-width:2.66287589;stroke-linecap:butt;stroke-linejoin:miter;stroke-miterlimit:4;stroke-opacity:1;stroke-dasharray:none"
       d="m 40.815795,1013.4886 -4.738762,1.9639 -2.707865,4.5827 0,3.9279 2.707865,3.2734 4.738762,1.9639 11.020471,3e-4 4.738573,-1.9637 2.708007,-3.2739 0,-3.9273 -2.708007,-4.5833 -4.738573,-1.9637 z"
       id="path5323-9-6-6-1-9"
       inkscape:connector-curvature="0"
       sodipodi:nodetypes="csssscccccccc" />
    <path
       style="fill:#ffffff;stroke:#000000;stroke-width:2.66355395;stroke-linecap:butt;stroke-linejoin:miter;stroke-miterlimit:4;stroke-opacity:1;stroke-dasharray:none"
       d="m 44.320208,1035.3189 -4.741355,1.9639 -2.709346,4.5825 0,3.9277 2.709346,3.2733 4.741355,1.9639 4.011645,2e-4 4.741165,-1.9636 2.709488,-3.2738 0,-3.9271 -2.709488,-4.5832 -4.741165,-1.9636 z"
       id="path5323-9-6-6-1-9-0"
       inkscape:connector-curvature="0"
       sodipodi:nodetypes="csssscccccccc" />
  </g>
</svg>
