<?xml version="1.0" encoding="UTF-8" standalone="no"?>
<!-- Created with Inkscape (http://www.inkscape.org/) -->

<svg
   xmlns:dc="http://purl.org/dc/elements/1.1/"
   xmlns:cc="http://creativecommons.org/ns#"
   xmlns:rdf="http://www.w3.org/1999/02/22-rdf-syntax-ns#"
   xmlns:svg="http://www.w3.org/2000/svg"
   xmlns="http://www.w3.org/2000/svg"
   xmlns:sodipodi="http://sodipodi.sourceforge.net/DTD/sodipodi-0.dtd"
   xmlns:inkscape="http://www.inkscape.org/namespaces/inkscape"
   id="svg3039"
   version="1.1"
   inkscape:version="0.48.4 r9939"
   width="850"
   height="850"
   sodipodi:docname="logo.jpg">
  <metadata
     id="metadata3045">
    <rdf:RDF>
      <cc:Work
         rdf:about="">
        <dc:format>image/svg+xml</dc:format>
        <dc:type
           rdf:resource="http://purl.org/dc/dcmitype/StillImage" />
        <dc:title></dc:title>
      </cc:Work>
    </rdf:RDF>
  </metadata>
  <defs
     id="defs3043" />
  <sodipodi:namedview
     pagecolor="#ffffff"
     bordercolor="#666666"
     borderopacity="1"
     objecttolerance="10"
     gridtolerance="10"
     guidetolerance="10"
     inkscape:pageopacity="0"
     inkscape:pageshadow="2"
     inkscape:window-width="1366"
     inkscape:window-height="744"
     id="namedview3041"
     showgrid="false"
     inkscape:zoom="0.49663853"
     inkscape:cx="480.05356"
     inkscape:cy="372.44192"
     inkscape:window-x="0"
     inkscape:window-y="24"
     inkscape:window-maximized="1"
     inkscape:current-layer="svg3039" />
  <g
     id="g3836"
     transform="translate(-4.0270738,18.121832)">
    <path
       transform="matrix(1.197561,0,0,1.197561,0.7386925,-186.91453)"
       d="m 667.75543,486.93466 c 0,161.19869 -132.58971,291.87604 -296.1474,291.87604 -163.55769,0 -296.147398,-130.67735 -296.147398,-291.87604 0,-161.19868 132.589708,-291.87604 296.147398,-291.87604 163.55769,0 296.1474,130.67736 296.1474,291.87604 z"
       sodipodi:ry="291.87604"
       sodipodi:rx="296.1474"
       sodipodi:cy="486.93466"
       sodipodi:cx="371.60803"
       id="path3064"
       style="fill:#000000;fill-opacity:1;stroke:#ffffff;stroke-width:0;stroke-miterlimit:4;stroke-opacity:1;stroke-dasharray:none"
       sodipodi:type="arc" />
    <path
       inkscape:connector-curvature="0"
       id="path3049"
       d="m 466.61682,631.24866 c -56.00278,-8.02798 -113.50619,-36.2671 -149.07598,-73.20913 l -8.57598,-8.90683 -10.42402,9.29253 c -14.33959,12.78308 -23.96013,19.51035 -38.24191,26.7411 -30.38722,15.3848 -59.38651,15.25016 -73.97251,-0.34346 -9.92001,-10.60529 -13.15828,-21.73413 -12.40175,-42.62062 0.58992,-16.28644 3.09841,-27.28766 10.14532,-44.49322 8.80839,-21.50632 25.35806,-51.21913 37.07688,-66.56677 6.95919,-9.11415 16.40488,-18.09705 21.08614,-20.053 3.34845,-1.39908 4.08507,-1.39091 7.95801,0.0882 8.95867,3.42134 15.40401,12.87742 35.46056,52.02481 7.88994,15.4 16.23382,31.53669 18.54194,35.85932 l 4.19659,7.85932 8.92574,-11.85932 c 13.86466,-18.42151 52.23156,-71.5839 55.62998,-77.08265 0.49355,-0.79858 -1.03953,-2.10362 -4.542,-3.86638 -13.86805,-6.9797 -29.07726,-20.22395 -35.17692,-30.63222 -11.08344,-18.91247 -10.62039,-46.87341 1.10332,-66.62274 8.17351,-13.76879 22.84137,-26.08424 35.85333,-30.10323 15.91687,-4.91622 26.87599,-3.45965 35.63855,4.7367 4.49062,4.20044 9.79471,12.4367 9.79471,15.20934 0,2.60821 -3.24889,1.85163 -7.9266,-1.84589 -13.83899,-10.93909 -31.45757,-10.80506 -43.84639,0.33356 -5.37641,4.83386 -13.15252,15.83089 -16.4244,23.22752 -7.15002,16.1638 -6.28722,34.25551 2.27741,47.75414 5.73792,9.0435 19.23914,20.50061 31.77119,26.96099 3.29143,1.69676 3.38061,1.68627 5,-0.58802 0.90683,-1.27358 11.05848,-16.27119 22.55922,-33.32802 30.07159,-44.5994 39.17719,-57.59335 55.71888,-79.51242 61.78523,-81.87036 113.37649,-124.36167 157.75065,-129.92572 9.89633,-1.24089 24.93739,-0.009 33.88051,2.77404 15.85755,4.93542 27.10082,17.60135 30.21882,34.0425 1.52346,8.03315 1.23297,26.76931 -0.56172,36.23015 -6.90604,36.40565 -37.30659,88.83154 -70.95994,122.37072 -39.02463,38.89222 -95.20919,68.09528 -150.45763,78.20337 -13.47271,2.46493 -44.90345,2.47634 -53.89443,0.0196 -6.24239,-1.70572 -6.42693,-1.70085 -7.76184,0.20499 -2.04381,2.91795 -51.79959,65.24755 -66.45769,83.25226 l -12.7589,15.67191 6.28359,7.36433 c 12.55586,14.71538 33.93385,30.14938 60.40485,43.60972 30.88337,15.70401 54.27107,24.14888 81.18442,29.31422 9.95894,1.91137 41.36628,1.58984 53.32236,-0.54588 37.84665,-6.76056 56.25382,-26.14882 52.62992,-55.43505 -1.16397,-9.40651 -0.52772,-11.15118 4.06657,-11.15118 6.28688,0 12.98115,12.81803 12.98115,24.85601 0,12.75384 -5.18962,23.393 -17.12545,35.1086 -11.5535,11.34033 -27.47953,19.39558 -47.87455,24.21454 -11.16235,2.63745 -48.48822,3.44752 -63,1.36726 z M 230.98557,576.74741 c 8.31905,-2.86218 16.04127,-7.22981 26.16034,-14.79612 9.37542,-7.01025 25.00274,-21.53768 31.47712,-29.26168 l 3.78256,-4.51263 -4.96768,-7.48737 c -8.36996,-12.61533 -14.59094,-23.52944 -26.9294,-47.24506 -13.53775,-26.02077 -17.29022,-32.21697 -21.81836,-36.02714 -3.80243,-3.19953 -4.33643,-3.26212 -8.2349,-0.96516 -10.74521,6.33103 -26.15781,47.51373 -30.96913,82.75 -1.68345,12.32891 -1.70113,35.68856 -0.0319,42.18807 1.78988,6.9694 6.12454,13.55319 10.26652,15.59349 4.65112,2.29111 14.22797,2.18464 21.26486,-0.2364 z M 462.08062,415.2329 c 18.21042,-4.15069 33.05626,-9.68601 55.0362,-20.52045 39.6342,-19.53665 68.52626,-42.43015 91.13804,-72.21601 10.01872,-13.19739 28.7615,-41.8882 36.12958,-55.30596 21.71673,-39.54757 27.50138,-69.16499 16.49846,-84.47206 -7.26624,-10.10866 -22.57596,-14.4349 -37.26608,-10.53069 -26.0278,6.91742 -55.58919,35.019 -101.00229,96.01452 -8.59934,11.55 -21.87548,30 -29.50254,41 -23.34503,33.669 -46.79334,66.48641 -62.51261,87.4904 -8.24041,11.01078 -14.98256,20.21105 -14.98256,20.44505 0,1.07242 5.64107,1.39663 19.5,1.12072 11.96662,-0.23823 17.41939,-0.85007 26.9638,-3.02552 z"
       style="fill:#ffffff;fill-opacity:1" />
  </g>
</svg>
